# xmcd CD database file
#
# Track frame offsets:
#	180
#	16712
#	32421
#	47962
#	63487
#	82589
#
# Disc length: 1261 seconds
#
# Revision: 2
# Processed by: cddbd v1.5.2PL0 Copyright (c) Steve Scherf et al.
# Submitted via: CDex 1.70beta2
#
DISCID=3804eb06
DTITLE=Talkin' Turkey - Full Of Hope
DYEAR=1998
DGENRE=Blues
TTITLE0=Monday Morning
TTITLE1=Blind Man Part II
TTITLE2=Full Of Hope 
TTITLE3=I Kissed The Devil
TTITLE4=My Woman Left Me
TTITLE5=Santa Domingo High School
EXTD=YEAR: 1998
EXTT0=
EXTT1=
EXTT2=
EXTT3=
EXTT4=
EXTT5=
PLAYORDER=
